<?xml version="1.0" encoding="utf-8"?>
<!-- Generator: Adobe Illustrator 27.5.0, SVG Export Plug-In . SVG Version: 6.00 Build 0)  -->
<svg version="1.1" xmlns="http://www.w3.org/2000/svg" xmlns:xlink="http://www.w3.org/1999/xlink" x="0px" y="0px"
	 viewBox="0 0 1100 800" style="enable-background:new 0 0 1100 800;" xml:space="preserve">
<g id="background">
	<rect style="fill:#B5D6CA;" width="1100" height="800"/>
</g>
<g id="shadow">
	<g style="opacity:0.25;">
		<path style="fill:#F7F7F7;" d="M512.002,657.006c-27.704,0.056-55.407,0.507-83.061,2.59c-10.427,0.786-20.636,2.513-31.086,3.21
			c-20.875,1.392-41.377,3.989-62.326,5.186c-16.87,0.965-33.811,1.534-50.632,2.758c-15.771,1.147-33.23,0.883-48.879-1.013
			c-11.585-1.403-23.223-2.193-34.614-4.447c-12.742-2.521-26.585-4.324-39.861-4.259c-18.932,0.092-37.368,0.103-55.486,4.555
			c-6.36,1.563-14.146,4.132-18.975,7.412c-11.056,7.508-12.552,26.242-1.513,34.029c18.593,13.106,58.276,18.248,84.338,18.491
			c28.559,0.266,56.302-1.17,84.903-2.014c26.576-0.784,53.086-1.901,79.706-1.861c54.368,0.08,108.744,0,163.015-2.46
			c50.988-2.311,102.105-1.517,153.205-1.517c52.401,0,104.447,0.279,156.47,4.995c22.667,2.055,45.76,2.774,68.54,4.214
			c20.402,1.289,40.008-0.025,60.329-1.217c17.063-1.001,34.015-3.969,49.517-8.986c12.271-3.971,34.146-16.31,37.909-25.789
			c10.55-26.576-148.676-25.938-173.123-25.878c-27.349,0.067-54.914,0.676-82.242-0.03c-11.495-0.297-22.821-1.819-34.04-3.486
			c-11.175-1.661-22.434-1.239-33.766-1.937c-47.257-2.91-94.62-2.485-142.028-2.485
			C542.873,657.067,527.437,656.975,512.002,657.006z"/>
	</g>
</g>
<g id="object">
	<g>
		<path style="fill:#1A3151;" d="M729.808,502.654l9.337,178.411c0.172,4.839,4.144,8.672,8.986,8.672h110.201
			c4.841,0,8.813-3.833,8.985-8.672l9.337-178.411H729.808z"/>
		<rect x="722.654" y="482.892" style="fill:#0D1928;" width="161.154" height="19.762"/>
		<polygon style="fill:#1A3151;" points="876.654,482.891 729.808,482.891 741.197,430.217 865.265,430.217 		"/>
		<path style="fill:#9EA6AD;" d="M843.268,473.062h-80.074c-4.07,0-7.37-3.299-7.37-7.37v-11.17c0-4.07,3.3-7.37,7.37-7.37h80.074
			c4.07,0,7.37,3.3,7.37,7.37v11.17C850.638,469.763,847.338,473.062,843.268,473.062"/>
		<path style="fill:#FFFFFF;" d="M825.008,598.265c-0.041-0.231-0.133-0.486-0.274-0.758c-0.137-0.262-0.544-1.015-1.082-2.009
			L825.008,598.265z"/>
		<path style="fill:#FFFFFF;" d="M804.594,571.5l5.113,1.521c1.817,0.541,4.789,1.426,6.608,1.967l5.113,1.523
			c1.817,0.54,3.645-0.562,4.063-2.451l1.178-5.313c0.416-1.888,1.098-4.978,1.517-6.867l1.177-5.313
			c0.42-1.888-0.771-2.51-2.642-1.383l-3.208,1.935c-1.176-2.051-2.351-4.09-2.805-4.836c-1.033-1.695-3.019-2.992-6.919-2.969
			c-2.895,0.016-10.586,0.061-15.452,0.09l6.452,11.594c0.144,0.148,0.279,0.335,0.399,0.582c0.308,0.636,1.478,2.828,2.642,4.994
			l-3.139,1.892C802.82,569.593,802.777,570.958,804.594,571.5"/>
		<path style="fill:#FFFFFF;" d="M786.71,553.267c-1.657,2.575-5.859,9.429-5.859,9.429c-0.942,1.537-0.462,3.547,1.068,4.465
			l10.306,6.187c1.529,0.918,3.536,0.401,4.454-1.149c0,0,5.813-9.773,6.351-10.678c0.553-0.94,1.221-1.08,1.759-0.523
			l-6.452-11.594c-1.684,0.01-3.032,0.019-3.722,0.023C791.932,549.443,788.864,549.919,786.71,553.267"/>
		<path style="fill:#FFFFFF;" d="M768.483,596.593c1.161,2.305,4.374,8.237,6.729,12.585l7.304-12.218
			c0.86-1.502,2.456-4.29,3.787-6.599l3.739,2.126c1.897,1.08,3.071,0.427,2.608-1.45l-1.309-5.282
			c-0.463-1.876-1.222-4.948-1.687-6.825l-1.305-5.282c-0.465-1.877-2.32-2.932-4.123-2.345l-5.074,1.654
			c-1.804,0.588-4.753,1.549-6.557,2.136l-5.074,1.652c-1.804,0.588-1.727,1.952,0.171,3.03l2.756,1.569
			c-1.408,2.786-3.066,6.076-3.484,7.02C766.209,590.068,766.676,593.01,768.483,596.593"/>
		<path style="fill:#FFFFFF;" d="M782.516,596.961l-7.303,12.217c1.312,2.42,2.359,4.352,2.636,4.888
			c0.771,1.499,1.875,4.434,8.845,4.394c6.965-0.041,10.132-0.059,10.132-0.059c1.772-0.011,3.216-1.503,3.205-3.317l-0.068-12.237
			c-0.011-1.814-1.468-3.291-3.244-3.28c0,0-11.861,0.07-13.839,0.081c-1.249,0.007-1.408-0.84-0.97-1.627
			C781.97,597.914,782.193,597.526,782.516,596.961"/>
		<path style="fill:#FFFFFF;" d="M825.008,598.265l6.037,12.338c2.114-3.983,5.701-10.901,7.167-13.892
			c1.961-4.001,2.516-7.47,1.612-9.293c-0.905-1.827-5.375-10.695-5.375-10.695c-0.814-1.614-2.714-2.155-4.225-1.204l-10.237,6.443
			c-1.512,0.95-2.04,3.026-1.178,4.61c0,0,3.111,5.722,4.843,8.926c0.538,0.994,0.945,1.747,1.082,2.009
			C824.874,597.779,824.966,598.034,825.008,598.265"/>
		<path style="fill:#FFFFFF;" d="M829.551,613.37c0.238-0.413,0.784-1.424,1.494-2.766l-6.037-12.339
			c0.127,0.717-0.227,1.205-1.095,1.21c-0.595,0.004-3.535,0.021-6.244,0.037l-0.034-3.825c-0.02-2.222-1.153-2.943-2.52-1.602
			l-3.843,3.769c-1.367,1.339-3.604,3.531-4.969,4.87l-3.844,3.77c-1.367,1.34-1.346,3.511,0.039,4.825l3.912,3.7
			c1.389,1.314,3.661,3.463,5.053,4.778l3.909,3.7c1.39,1.314,2.513,0.572,2.492-1.65l-0.034-3.636
			c1.53-0.01,3.22-0.019,4.782-0.029C826.958,618.157,828.6,615.009,829.551,613.37"/>
		<path style="fill:#5BBCB9;" d="M450.362,155.913l14.554,4.33c5.172,1.54,13.631,4.06,18.808,5.6l14.554,4.332
			c5.172,1.537,10.376-1.6,11.566-6.975l3.352-15.122c1.184-5.376,3.127-14.17,4.317-19.548l3.352-15.122
			c1.195-5.373-2.194-7.145-7.52-3.937l-9.132,5.507c-3.346-5.837-6.693-11.642-7.984-13.766c-2.941-4.824-8.593-8.515-19.694-8.45
			c-8.24,0.047-30.133,0.175-43.983,0.257l18.365,33.002c0.411,0.42,0.795,0.953,1.137,1.654c0.875,1.813,4.205,8.051,7.52,14.216
			l-8.934,5.387C445.314,150.486,445.191,154.371,450.362,155.913"/>
		<path style="fill:#448D8B;" d="M399.457,104.014c-4.718,7.33-16.678,26.84-16.678,26.84c-2.68,4.373-1.313,10.096,3.042,12.708
			l29.333,17.612c4.354,2.613,10.065,1.142,12.68-3.27c0,0,16.545-27.82,18.077-30.395c1.575-2.675,3.474-3.074,5.006-1.488
			L432.553,93.02c-4.793,0.027-8.63,0.052-10.595,0.062C414.321,93.129,405.59,94.486,399.457,104.014"/>
		<path style="fill:#5BBCB9;" d="M347.576,227.339c3.304,6.561,12.451,23.447,19.155,35.822l20.788-34.776
			c2.45-4.278,6.991-12.212,10.781-18.783l10.642,6.05c5.401,3.074,8.742,1.214,7.424-4.129l-3.726-15.034
			c-1.318-5.34-3.479-14.082-4.803-19.425l-3.715-15.035c-1.323-5.343-6.602-8.346-11.736-6.675l-14.442,4.707
			c-5.134,1.673-13.529,4.409-18.664,6.08l-14.442,4.704c-5.134,1.671-4.915,5.555,0.486,8.624l7.845,4.464
			c-4.008,7.931-8.726,17.295-9.916,19.982C341.102,208.766,342.431,217.139,347.576,227.339"/>
		<path style="fill:#448D8B;" d="M387.518,228.385l-20.788,34.776c3.736,6.888,6.714,12.387,7.504,13.913
			c2.194,4.267,5.337,12.621,25.175,12.506c19.827-0.117,28.841-0.169,28.841-0.169c5.044-0.03,9.153-4.278,9.122-9.441
			l-0.193-34.83c-0.032-5.166-4.178-9.368-9.233-9.337c0,0-33.762,0.199-39.393,0.229c-3.554,0.022-4.008-2.389-2.759-4.63
			C385.966,231.099,386.6,229.993,387.518,228.385"/>
		<path style="fill:#5BBCB9;" d="M508.467,232.098l17.185,35.12c6.015-11.338,16.225-31.03,20.399-39.543
			c5.582-11.39,7.162-21.262,4.59-26.452c-2.578-5.201-15.302-30.444-15.302-30.444c-2.316-4.592-7.723-6.131-12.024-3.426
			l-29.141,18.341c-4.301,2.703-5.807,8.611-3.351,13.121c0,0,8.854,16.288,13.785,25.407c1.532,2.828,2.69,4.974,3.08,5.719
			C508.088,230.714,508.349,231.439,508.467,232.098"/>
		<path style="fill:#448D8B;" d="M521.399,275.091c0.678-1.177,2.231-4.054,4.254-7.874l-17.186-35.12
			c0.363,2.039-0.645,3.429-3.116,3.443c-1.693,0.01-10.061,0.06-17.773,0.106l-0.096-10.888c-0.059-6.325-3.282-8.378-7.173-4.562
			l-10.941,10.73c-3.891,3.811-10.258,10.049-14.143,13.863l-10.941,10.73c-3.891,3.814-3.832,9.995,0.112,13.735l11.133,10.53
			c3.955,3.74,10.423,9.858,14.383,13.601l11.128,10.53c3.955,3.741,7.152,1.63,7.093-4.695l-0.096-10.35
			c4.355-0.028,9.164-0.055,13.609-0.082C514.018,288.718,518.693,279.758,521.399,275.091"/>
		<path style="fill:#145566;" d="M720.972,203.611l9.135-26.058c0.821-2.344-0.348-4.92-2.654-5.844l-6.584-2.639
			c-2.306-0.924-4.93,0.131-5.955,2.394l-11.392,25.153c-0.826,1.823-2.722,2.842-4.718,2.699
			c-6.213-0.444-12.302,3.119-14.736,9.19l-27.153,67.746c-0.954,2.379,0.202,5.082,2.581,6.035l34.143,13.685
			c2.38,0.954,5.082-0.202,6.036-2.581l27.153-67.746c2.434-6.071,0.491-12.853-4.308-16.823
			C720.977,207.546,720.31,205.499,720.972,203.611"/>
		
			<rect x="721.811" y="160.561" transform="matrix(0.372 -0.9282 0.9282 0.372 296.5807 779.1726)" style="fill:#5BBCB9;" width="4.701" height="19.656"/>
		<path style="fill:#FFFFFF;" d="M712.532,253.071l-2.719-1.09l9.857-24.594c3.489-10.309-2.004-12.949-2.239-13.057l1.166-2.688
			c0.338,0.144,8.245,3.694,3.821,16.76L712.532,253.071z"/>
		<polygon style="fill:#1A3151;" points="645.554,364.501 593.298,402.634 559.598,387.197 552.911,399.491 575.554,418.745 
			594.9,425.975 645.554,401.589 		"/>
		<polygon style="fill:#EBCEB1;" points="716.031,285.447 717.155,269.453 704.219,259.438 698.794,266.532 704.636,276.964 
			702.55,282.389 708.285,291.003 		"/>
		<polygon style="fill:#1A3151;" points="613.528,467.084 612.481,557.576 622.125,674.067 635.238,674.067 650.928,566.593 
			668.87,458.935 		"/>
		<polygon style="fill:#1A3151;" points="635.162,679.595 620.983,686.685 613.893,679.595 620.983,672.505 635.162,672.505 		"/>
		<polygon style="fill:#1A3151;" points="703.428,467.084 703.686,519.437 694.841,674.067 681.729,674.067 659.794,571.455 
			648.085,458.935 		"/>
		<polygon style="fill:#1A3151;" points="681.805,679.595 695.984,686.685 703.074,679.595 695.984,672.505 681.805,672.505 		"/>
		<path style="fill:#1A3151;" d="M717.064,498.606c0.281,8.306,0.101,19.417-3.397,19.832c-0.654,0.078-1.286-0.212-1.862-0.492
			c-6.081-2.954-10.416-7.131-16.412-9.985c-6.282-2.991-13.423-4.556-20.401-5.637c-10.408-1.663-20.988-2.661-31.464-2.754
			c-9.003-0.08-18.366,4.027-26.877,6.285c-3.276,0.87-5.941,3.257-8.663,5.13c-4.02,2.766-5.782,3.861-5.234-1.79
			c0.895-9.221,1.823-18.439,2.958-27.634c2.262-18.34,5.342-36.636,10.553-54.389c1.991-6.783,4.288-13.471,6.583-20.156
			c2.796-8.141,5.591-16.282,8.387-24.423c3.475-10.118,9.339-17.246,19.607-20.785c8.874-3.059,19.896-3.895,28.527,0.386
			c9.594,4.76,14.157,20.974,18.818,29.64c4.085,7.593,9.233,28.303,10.762,36.49c1.841,9.852,3.54,19.659,4.879,29.439
			c1.482,10.833,2.527,21.634,2.829,32.371C716.691,491.321,716.93,494.64,717.064,498.606"/>
		<path style="fill:#FFFFFF;" d="M669.669,363.625l-17.72,0.169c0,0-19.014,66.448-19.712,77.901
			c-0.686,11.243-5.492,56.829-5.492,56.829s19.624,0.463,42.235,3.217c22.104,4.73,23.961,1.933,23.961,1.933
			s-11.929-47.913-12.325-61.679c-0.405-14.08-2.207-60.583-2.207-60.583L669.669,363.625z"/>
		<path style="fill:#EBCEB1;" d="M658.923,363.97c0.208,0.181,0.448,0.323,0.725,0.414c0.55,0.181,1.148,0.115,1.724,0.047
			c2.344-0.277,4.687-0.554,7.031-0.832c-0.773-7.178,3.423-8.801,7.512-13.418c4.144-4.68,2.869-10.99,2.636-16.718
			c-0.067-1.595-0.144-3.238-0.819-4.685c-1.183-2.539-3.939-3.942-6.614-4.773c-6.827-2.122-14.636-1.599-20.647,2.271
			c-1.6,1.03-3.094,2.324-3.96,4.018c-1.336,2.611-0.997,5.728-0.624,8.638c0.572,4.472,1.896,8.865,4.425,12.635
			c2.356,3.512,6.849,5.194,7.365,9.409C657.81,362.065,658.14,363.29,658.923,363.97"/>
		<path style="fill:#1A3151;" d="M646.084,333.733c0.399,1.804,1.24,3.629,0.802,5.423c-2.866-0.972-4.738-3.903-5.752-6.882
			c-0.46-1.35-0.795-2.78-0.679-4.208c0.116-1.429,0.736-2.864,1.864-3.672c1.574-1.126,4.398-0.684,4.848,1.358
			C647.621,327.81,645.484,331.019,646.084,333.733"/>
		<path style="fill:#1A3151;" d="M630.874,317.889c0.068-2.161,0.891-4.092,2.823-5.397c1.664-1.125,3.584-2.057,4.596-3.845
			c0.785-1.387,0.9-3.104,1.678-4.496c1.408-2.52,4.466-3.262,7.126-4.116c6.654-2.137,10.236-4.604,17.284-1.869
			c5.011,1.946,11.485,2.206,16.136,5.043c1.942,1.185,3.594,3.089,4.95,5.209c4.699,7.345,5.826,17.674,2.766,25.335
			c-0.685,1.715-1.555,3.292-2.485,4.802c-1.861,3.02-3.853,6.735-7.147,8.213c-0.207-1.423-1.267-2.208-1.598-3.606
			c-0.239-1.007-0.159-2.061-0.107-3.097c0.202-4.028,1.438-10.398-2.585-12.396c-5.087-2.525-14.629-0.247-19.529,1.892
			c-4.335,1.892-11.651,4.353-16.273,2.326C634.218,330.006,630.729,322.506,630.874,317.889"/>
		<polygon style="fill:#1A3151;" points="675.352,361.275 720.336,348.017 703.685,291.78 717.406,281.939 750.526,347.042 
			741.367,369.586 698.388,391.771 		"/>
		<polygon style="fill:#1A3151;" points="933.556,677.198 933.743,679.145 934.364,685.609 947.449,691.214 953.06,684.322 
			946.207,678.287 945.575,678.017 945.499,678.821 		"/>
		<path style="fill:#909497;" d="M932.891,677.107l0.665,0.09l-0.434-4.516l12.453,5.335l10.359-109.108l1.275-5.154
			c-9.789,0.143-21.422,0.289-33.144,0.382L932.891,677.107z"/>
		<polygon style="fill:#909497;" points="933.556,677.198 945.499,678.821 945.575,678.017 933.122,672.682 		"/>
		<path style="fill:#909497;" d="M880.567,564.079l2.409,28.559l24.156,74.046l11.803-1.569l0.192,1.447l0.067-0.009l-8.697-76.308
			l7.447-26.066C904.244,564.263,890.846,564.26,880.567,564.079"/>
		<polygon style="fill:#1A3151;" points="907.133,666.684 906.389,666.783 900.991,674.192 908.137,679.935 919.809,671.691 
			919.128,666.563 907.594,668.096 		"/>
		<polygon style="fill:#1A3151;" points="907.133,666.684 907.594,668.096 919.128,666.563 918.934,665.115 		"/>
		<path style="fill:#5BBCB9;" d="M910.332,385.82c1.434-3.574,2.906-7.212,5.363-10.177c3.684-4.445,9.573-7.015,15.324-6.522
			c0.029,0.002,0.058,0.008,0.088,0.01c-0.194-0.752-0.326-1.514-0.34-2.294c-0.079-4.202,3.047-7.66,5.068-11.344
			c0.189-0.344,0.366-0.707,0.533-1.087c0.409-0.929,0.75-1.965,1.031-3.077l-0.88,0.419c-2.002,1.706-4.333,2.881-6.915,3.295
			l-24.23,11.548l-9.72,39.565l2.504,1.095C905.816,404.236,907.582,392.674,910.332,385.82"/>
		<path style="fill:#5BBCB9;" d="M962.426,398.02c1.516,7.145,15.19,24.339,12.693,17.349c-3.97-11.113-8.249-19.993-12.366-27.612
			C961.091,384.683,961.697,394.587,962.426,398.02"/>
		<path style="fill:#5BBCB9;" d="M979.078,450.458c-4.528,2.421-9.778,3.182-14.912,3.174c-4.11-0.006-8.277-0.474-12.292,0.406
			c-4.014,0.88-7.99,3.494-9.005,7.477c-0.56,2.198-0.378,4.958-2.277,6.198c-0.892,0.581-2.017,0.63-3.081,0.66
			c-3.251,0.093-6.944,0.009-9.128-2.403c-3.379-3.732-1.405-11.219-5.972-13.341c-1.338-0.621-2.882-0.525-4.337-0.771
			c-6.179-1.046-9.201-8.035-8.607-14.452c-2.103,1.835-4.455,3.458-7.188,3.515c-3.146,0.064-5.899-1.974-8.376-3.915
			c-1.608-1.26-3.251-2.495-4.915-3.714l-0.099,0.4l-25.058,129.631c2.984,0.381,8.97,0.619,16.736,0.757l-1.78-21.098l43.675,5.384
			l-4.518,15.814c2.037-0.013,4.079-0.027,6.12-0.043l-1.249-15.987l41.746-14.111l-7.352,29.716
			c15.007-0.22,25.679-0.432,25.679-0.432s9.119-66.995,1.023-116.511C982.505,448.269,980.856,449.508,979.078,450.458"/>
		<path style="fill:#5BBCB9;" d="M922.815,548.15l1.249,15.986c11.722-0.092,23.355-0.238,33.145-0.381l7.352-29.716L922.815,548.15
			z"/>
		<path style="fill:#5BBCB9;" d="M878.788,542.981l1.779,21.098c10.279,0.181,23.678,0.184,37.377,0.1l4.519-15.813L878.788,542.981
			z"/>
		<path style="fill:#E2D0B5;" d="M842.862,379.836c-0.372-1.612-8.843-10.235-9.335-9.047c-0.537,1.295-0.766,2.66-1.048,4.062
			c-3.449-1.851-11.8-9.079-11.295-0.725c0.219,3.619,6.567,9.876,9.745,10.973c0.072,0.025,0.145,0.05,0.217,0.074l11.664-2.032
			C843.108,382.227,843.175,381.19,842.862,379.836"/>
		<path style="fill:#5BBCB9;" d="M842.959,383.115l-0.149,0.026c-0.554,1.698-1.923,2.96-3.247,4.971
			c-2.774-1.042-5.607-1.972-8.417-2.939l-3.03,0.528c15.482,19.974,40.08,32.36,60.872,47.59l6.666-27.136L842.959,383.115z"/>
		<path style="fill:#5BBCB9;" d="M902.279,440.92c2.733-0.056,5.085-1.68,7.188-3.515c0.123-1.33,0.398-2.635,0.836-3.858
			c2.552-7.122,8.468-12.406,12.948-18.503c8.747-11.902,14.66-27.804,9.282-41.89c-0.506-1.326-1.074-2.656-1.426-4.024
			c-0.03-0.002-0.059-0.008-0.088-0.01c-5.751-0.493-11.641,2.077-15.324,6.522c-2.457,2.965-3.929,6.603-5.363,10.177
			c-2.75,6.854-4.516,18.416-12.174,21.431l-2.504-1.095l-6.666,27.136c1.664,1.219,3.307,2.454,4.916,3.714
			C896.38,438.947,899.133,440.985,902.279,440.92"/>
		<path style="fill:#D0CFD1;" d="M842.81,383.141l-11.665,2.032c2.811,0.967,5.643,1.897,8.418,2.939
			C840.888,386.101,842.256,384.839,842.81,383.141"/>
		<path style="fill:#E1CFB5;" d="M937.521,350.823c2.272-9.839-0.19-25.386-6.769-31.186c-2.586-2.281-5.542-2.694-8.838-2.719
			c-1.558-0.012-2.079,0.391-2.883,0.249c-2.452,3.155-4.095,7.004-3.793,10.644c0.254,3.063,2.019,5.399,2.16,8.689
			c0.28,5.989,8.844,12.001,5.554,17.949c2.35,0.766,4.582,0.925,6.652,0.593l6.915-3.295
			C936.863,351.455,937.197,351.147,937.521,350.823"/>
		<path style="fill:#E1CFB5;" d="M929.604,355.043c2.582-0.414,4.913-1.59,6.915-3.295L929.604,355.043z"/>
		<path style="fill:#E1CFB5;" d="M917.398,336.5c-0.141-3.29-1.906-5.626-2.16-8.689c-0.301-3.64,1.341-7.489,3.793-10.644
			c-0.36-0.063-0.778-0.236-1.373-0.606c-1.18-0.735-2.232-2.657-2.784-4.224c-3.057,1.934-5.281,5.425-5.894,10.743
			c-0.667,5.78-0.656,11.878,1.325,17.662c1.981,5.784,6.209,11.222,11.695,13.369c0.32,0.125,0.636,0.235,0.952,0.338
			C926.242,348.501,917.678,342.49,917.398,336.5"/>
		<path style="fill:#1A3151;" d="M977.391,417.415c-0.747-0.68-1.509-1.361-2.273-2.047c0.503,1.289,1.004,2.596,1.501,3.922
			c0.498,1.326,0.992,2.671,1.483,4.035c0.317,0.879,0.623,1.773,0.919,2.681c-0.296-0.908-0.603-1.802-0.919-2.681
			c-0.491-1.364-0.985-2.709-1.483-4.035c-0.497-1.326-0.998-2.633-1.501-3.922c-5.521-4.962-11.176-10.203-12.693-17.349
			c-0.728-3.432-0.402-6.845,0.327-10.263c1.173-5.492,3.391-10.995,3.97-16.604c0.992-9.606,0.209-23.416-2.136-32.814
			c-2.508-10.048-7.976-19.141-14.535-27.06c-7.957-9.606-22.748-20.36-33.224-7.78c-0.12,0.144-0.237,0.292-0.35,0.443
			c-1.138-0.569-2.331-1.031-3.559-1.368c-7.237,6.095-9.099,15.907-8.34,24.924c0.761,9.035,5.32,19.27,2.747,28.232
			c-0.246,0.857-0.566,1.713-0.559,2.604c0.007,0.892,0.434,1.854,1.264,2.177c0.505,0.196,1.069,0.13,1.606,0.06
			c4.428-0.571,9.248-1.339,12.251-4.643c0.448-0.492,0.792-0.985,1.065-1.478c-0.316-0.103-0.633-0.213-0.953-0.338
			c-5.485-2.146-9.714-7.584-11.695-13.368c-1.981-5.784-1.991-11.882-1.325-17.663c0.613-5.317,2.837-8.809,5.894-10.742
			c0.553,1.567,1.605,3.489,2.785,4.224c0.595,0.37,1.012,0.543,1.373,0.606c0.804,0.141,1.324-0.261,2.882-0.25
			c3.297,0.025,6.253,0.439,8.839,2.719c6.579,5.801,9.041,21.347,6.769,31.186c6.203-6.187,8.689-17.68,4.606-26.269
			c-0.232-0.489-0.478-0.966-0.738-1.433c0.26,0.467,0.506,0.944,0.738,1.433c4.083,8.589,1.597,20.082-4.606,26.269
			c-0.04,0.17-0.08,0.339-0.122,0.505c-0.281,1.112-0.622,2.149-1.031,3.078c-0.167,0.38-0.344,0.742-0.533,1.086
			c-2.021,3.684-5.147,7.143-5.068,11.344c0.014,0.78,0.145,1.543,0.339,2.295c0.353,1.367,0.921,2.697,1.427,4.023
			c5.378,14.086-0.536,29.988-9.282,41.89c-4.48,6.097-10.396,11.382-12.948,18.504c-0.438,1.222-0.713,2.528-0.836,3.857
			c-0.594,6.417,2.428,13.407,8.607,14.452c1.455,0.246,3,0.15,4.337,0.772c4.567,2.122,2.593,9.609,5.973,13.341
			c2.183,2.411,5.876,2.496,9.127,2.403c1.064-0.031,2.189-0.079,3.081-0.661c1.9-1.239,1.717-4,2.277-6.198
			c1.015-3.982,4.991-6.597,9.005-7.476c4.015-0.88,8.182-0.413,12.292-0.406c5.134,0.008,10.384-0.754,14.912-3.174
			c1.777-0.951,3.427-2.19,4.833-3.646c-0.173-1.061-0.355-2.113-0.544-3.157c0.189,1.044,0.371,2.096,0.544,3.157
			c2.175-2.254,3.759-5.034,4.283-8.108C989.592,430.507,983.541,423.011,977.391,417.415 M930.608,312.736
			c0.849,0.428,1.686,0.913,2.502,1.454C932.294,313.649,931.457,313.164,930.608,312.736"/>
		<polygon style="fill:#EBCEB1;" points="252.075,327.497 256.48,322.465 256.063,316.56 257.25,315.828 258.188,317.271 
			259.223,312.26 262.42,309.659 267.646,311.145 270.957,315.733 268.924,320.858 263.836,324.922 258.098,332.076 		"/>
		<polygon style="fill:#C8D6A1;" points="251.263,323.285 204.646,360.224 174.706,354.803 170.337,396.453 207.57,389.084 
			222.846,382.942 266.081,331.442 		"/>
		<polygon style="fill:#1A3151;" points="181.296,673.028 181.296,678.654 195.724,685.868 202.938,678.654 195.724,671.44 
			194.793,671.44 194.561,673.028 		"/>
		<polygon style="fill:#1A3151;" points="145.765,671.44 144.769,671.44 137.555,678.654 144.769,685.868 159.197,678.654 
			159.197,673.028 145.932,673.028 		"/>
		<path style="fill:#C8D6A1;" d="M145.969,459.51c1.899-9.609,3.383-18.478,3.519-23.289c0.409-14.466,2.23-62.244,2.23-62.244
			l8.83-18.275l1.63,0.016c-0.117-0.014-0.235-0.028-0.352-0.042c0.384,0.045-0.184-3.532-0.321-3.848
			c-7.678-0.262-17.571,4.069-22.414,10.102c-3.583,4.465-5.713,9.922-7.788,15.284c-5.845,15.098-8.495,29.085-11.411,44.961
			c-1.859,10.123-3.577,20.198-4.928,30.247c-1.498,11.129-2.554,22.226-2.859,33.258c-0.034,1.22-0.276,4.63-0.411,8.704
			c-0.284,8.535-0.102,19.95,3.432,20.376c0.661,0.08,1.299-0.217,1.881-0.505c4.546-2.246,8.127-5.178,12.135-7.74l0.215-44.518
			L145.969,459.51z"/>
		<path style="fill:#C8D6A1;" d="M227.179,505.263c-0.904-9.473-1.842-18.945-2.988-28.392c-2.286-18.842-5.398-37.64-10.662-55.88
			c-2.011-6.968-4.332-13.84-6.651-20.708c-2.824-8.365-5.649-16.729-8.473-25.093c-3.51-10.396-9.435-17.719-19.808-21.355
			c-1.853-0.65-3.803-1.151-5.813-1.518c-0.049,0.215-0.094,0.433-0.121,0.662c-0.121,0.999-0.401,2.106-1.022,2.83l6.809,0.066
			c0,0,19.209,68.271,19.915,80.037c0.268,4.473,1.161,14.237,2.154,24.523l10.431,1.562l0.447,39.343
			c0.584,0.171,1.165,0.336,1.742,0.492c3.31,0.893,6.002,3.346,8.752,5.27C225.952,509.943,227.733,511.069,227.179,505.263"/>
		<path style="fill:#6A737F;" d="M200.519,460.435c1.571,16.278,3.394,33.865,3.394,33.865s-8.433,0.202-20.633,1.128
			c0.902-0.022,1.805-0.046,2.706-0.054c8.486-0.076,17.287,3.59,25.412,5.967l-0.448-39.344L200.519,460.435z"/>
		<path style="fill:#C8D6A1;" d="M143.577,500.378c-5.817,0.308-6.541-0.787-6.541-0.787s5.248-21.436,8.933-40.082l-16.612,2.488
			l-0.216,44.518c1.41-0.901,2.871-1.757,4.446-2.52C136.745,502.466,140.117,501.301,143.577,500.378"/>
		<path style="fill:#1A3151;" d="M211.398,501.341c-8.125-2.377-16.926-6.043-25.412-5.967c-0.901,0.008-1.804,0.033-2.706,0.054
			c-0.755,0.057-1.525,0.117-2.308,0.18c-5.686,0.458-12.075,1.068-18.745,1.878c-0.328,0.04-0.654,0.079-0.983,0.119
			c-8.531,1.857-14.07,2.583-17.667,2.774c-3.459,0.923-6.832,2.088-9.989,3.617c-1.576,0.763-3.037,1.619-4.446,2.519l-0.045,9.27
			l16.265,157.457h13.336v1.603h0.077l14.663-105.615l0.061-0.595l8.034,106.21h0.076v-1.603h13.401l16.998-118.272L211.398,501.341
			z"/>
		<path style="fill:#FFFFFF;" d="M200.519,460.435c-0.993-10.286-1.886-20.05-2.154-24.523
			c-0.705-11.766-19.915-80.037-19.915-80.037l-6.809-0.066c-0.074,0.088-0.152,0.172-0.237,0.247
			c-0.21,0.186-0.452,0.332-0.732,0.425c-0.556,0.187-1.16,0.119-1.741,0.049c-2.251-0.271-4.502-0.542-6.753-0.813l-1.63-0.015
			l-8.83,18.275c0,0-1.82,47.778-2.229,62.244c-0.136,4.81-1.621,13.679-3.52,23.289c-3.685,18.645-8.933,40.081-8.933,40.081
			s0.724,1.096,6.541,0.787c3.597-0.19,9.136-0.916,17.668-2.773c0.329-0.041,0.654-0.079,0.982-0.119
			c6.67-0.81,13.059-1.421,18.745-1.878c0.783-0.063,1.553-0.123,2.308-0.18c12.2-0.926,20.633-1.128,20.633-1.128
			S202.09,476.713,200.519,460.435"/>
		<polygon style="fill:#EBCEB1;" points="177.93,448.865 183.262,452.834 189.005,451.837 189.831,452.967 188.503,454.058 
			193.503,454.617 196.344,457.599 195.367,463.034 191.176,466.832 185.973,465.273 181.527,460.519 173.999,455.407 		"/>
		<polygon style="fill:#C8D6A1;" points="182.63,448.642 154.384,425.853 152.073,367.022 129.576,389.858 125.476,427.728 
			131.003,442.009 178.79,461.894 		"/>
		<path style="fill:#1A3151;" d="M183.983,312.182c1.709,3.446,2.419,7.349,2.391,11.208c-0.008,1.027,0.001,2.212,0.784,2.859
			c0.839,0.693,0.001,2.073,0.708,1.242c0.706-0.831,3.109-3.72,3.266-4.807c0.366-2.546,0.494-5.129,0.379-7.7
			c-0.1-2.236-0.429-4.584-1.775-6.355c-0.798-1.05-1.895-1.817-2.976-2.561c-1.567-1.078-3.184-2.168-5.024-2.618
			c-3.172-0.774-5.195,0.291-2.484,2.711C181.194,307.894,182.812,309.821,183.983,312.182"/>
		<path style="fill:#EBCEB1;" d="M161.868,354.837c4.385,0.65,8.77,1.299,13.155,1.949c0.866-3.835,1.458-7.747,1.769-11.684
			c3.871-0.468,8.449-1.494,9.968-5.513c0.478-1.266,0.563-2.666,0.643-4.035c0.327-5.662,0.655-11.323,0.982-16.984
			c0.114-1.958,0.22-3.977-0.347-5.829c-0.996-3.25-3.841-5.305-6.664-6.653c-7.205-3.438-15.789-3.766-22.801,0.221
			c-1.867,1.061-3.648,2.458-4.792,4.421c-1.763,3.027-1.755,6.879-1.688,10.482c0.063,3.325,0.125,6.651,0.187,9.977
			c0.072,3.825,0.413,8.241,3.221,10.406c1.491,1.15,3.478,1.451,4.74,2.904C162.466,347.061,161.173,351.345,161.868,354.837"/>
		<path style="fill:#1A3151;" d="M188.867,333.366c-0.009-1.053-0.304-4.154-1.955-2.301c-0.432,0.484-0.568,1.194-0.628,1.866
			c-0.059,0.672-0.064,1.367-0.304,1.99c-0.553,1.43-2.17,2.009-3.58,1.91c-0.56-0.04-1.127-0.163-1.609-0.476
			c-0.468-0.305-0.827-0.768-1.178-1.223c-0.852-1.104-1.704-2.208-2.556-3.312c-1.465-1.898-4.592-1.274-6.703-1.105
			c-2.433,0.194-4.889,0.809-6.946,2.323c-0.207,0.153-0.411,0.314-0.614,0.475c-0.498,0.392-0.997,0.781-1.564,1.026
			c-1.914,0.826-4.177-0.259-5.397-2.057c-0.56-0.823-1.067-1.873-1.992-2.054c-0.723-0.142-1.46,0.352-1.868,1.026
			c-0.409,0.674-0.552,1.495-0.643,2.296c-0.332,2.916-0.089,5.953,1.027,8.613c2.419,5.768,7.611,6.733,12.871,6.882
			c2.079,0.059,4.158,0.118,6.238,0.177c3.801,0.108,7.822,0.158,11.134-1.919c2.921-1.832,4.768-5.111,5.634-8.6
			C188.682,337.102,188.883,335.228,188.867,333.366 M174.574,340.614c-2.069,1.262-4.276,1.22-6.47,0.422
			c-0.932-0.34-0.448-1.936,0.486-1.596c1.818,0.662,3.561,0.739,5.284-0.312C174.74,338.599,175.436,340.089,174.574,340.614"/>
		<path style="fill:#1A3151;" d="M191.215,302.72c0.436-1.353,0.778-2.738,1.022-4.14c-1.308,0.391-2.713,0.439-4.045,0.14
			c0.038-0.815,0.076-1.629,0.115-2.444c0.028-0.678-8.958-1.624-9.687-1.723c-6.825-0.931-13.066-1.803-19.453,1.613
			c-5.456,2.918-9.092,7.512-10.219,13.681c-1.076,5.893,0.441,13.743,3.566,18.845c0.061-1.581-0.645-5.354-0.202-6.837
			c0.301-1.492,0.885-2.916,1.658-4.219c1.543-2.6,3.839-4.737,6.44-6.211c4.147-2.35,8.886-3.459,13.584-3.875
			c4.305-0.382,9.542-0.668,13.706,0.705c2.001,0.66,2.312,1.195,3.647-0.824c0.235-0.356,2.17-4.555,2.002-4.566
			C192.638,302.816,191.926,302.768,191.215,302.72"/>
		<path style="fill:#BC9268;" d="M495.877,292.602c-0.999-3.384-1.996-6.768-2.967-10.16c-1.475,0.417-2.949,0.834-4.424,1.252
			c0.147,2.484,0.291,4.968,0.437,7.452c-0.763-0.123-1.525-0.253-2.288-0.375c1.255,2.799,2.573,5.562,3.872,8.34
			c1.57-0.204,3.138-0.445,4.714-0.596C495.43,296.546,495.578,294.559,495.877,292.602"/>
		<path style="fill:#E2EFF7;" d="M454.688,382.364c-0.268-0.523-0.501-1.055-0.695-1.586c-2.205-6.033-3.086-12.811-0.924-18.86
			c0.312-0.872,0.724-1.773,1.499-2.282c0.627-0.412,1.404-0.508,2.15-0.594c6.459-0.742,12.918-1.483,19.377-2.225
			c0.603-0.069,1.243-0.154,1.712-0.539c0.42-0.344,0.633-0.874,0.821-1.384c2.004-5.433,12.986-57.819,9.571-58.169
			c3.164-0.251,6.324-0.546,9.489-0.77c3.177,16.8,6.741,64.484,2.164,70.199c-10.377,12.954-14.587,13.818-29.949,21.214
			c-1.893,0.911-3.907,1.732-6.007,1.701C459.879,389.009,456.486,385.87,454.688,382.364"/>
		<path style="fill:#BC9268;" d="M359.012,345.073c-3.181-1.528-6.36-3.056-9.528-4.61c-0.679,1.374-1.358,2.748-2.037,4.122
			c1.942,1.556,3.882,3.114,5.823,4.672c-0.603,0.483-1.21,0.962-1.813,1.446c2.919,0.945,5.852,1.82,8.785,2.718
			c0.901-1.301,1.773-2.627,2.717-3.897C361.639,348.049,360.264,346.606,359.012,345.073"/>
		<polygon style="fill:#E1CEB4;" points="418.257,666.127 418.225,679.704 426.104,679.722 426.139,664.67 		"/>
		<polygon style="fill:#E1CEB4;" points="455.688,661.759 453.648,676.369 462.127,677.553 464.388,661.355 		"/>
		<path style="fill:#1A3151;" d="M462.241,677.553l-7.752-1.182l-3.064,1.157l-2.242,5.332l17.215,10.682
			c2.641-1.474,3.184-5.044,1.1-7.236l-0.687-0.724L462.241,677.553z"/>
		<path style="fill:#1A3151;" d="M426.104,679.722l-7.879-0.018l-2.761,3.63l0.551,5.758l20.221,1.254l0.58-1.313
			c1.14-2.581-0.516-5.534-3.313-5.907l-0.447-0.06L426.104,679.722z"/>
		<polygon style="fill:#58677F;" points="394.23,535.489 408.277,599.659 416.833,672.305 429.862,672.336 440.184,490.369 
			396.54,491.072 		"/>
		<polygon style="fill:#58677F;" points="477.801,531.763 479.487,594.027 468.092,667.544 451.414,667.449 448.001,589.471 
			436.016,532.936 432.035,495.939 468.381,491.666 		"/>
		<polygon style="fill:#E2EFF7;" points="451.659,354.565 410.843,359.207 404.053,381.755 394.414,448.136 389.712,504.548 
			455.328,505.556 476.929,502.1 471.371,442.869 463.172,375.631 		"/>
		<path style="fill:#BC9268;" d="M447.015,310.902c-3.258-3.286-7.874-5.183-12.502-5.134
			c-16.054,0.167-17.279,15.789-14.289,27.942c1.318,5.355,3.957,10.609,8.428,13.838c1.214,0.877,2.582,1.561,4.017,2.038
			c-0.001,0.003-0.002,0.006-0.002,0.008c-0.247,0.832-0.197,10.897-0.909,10.801c3.729,0.5,7.587,0.013,11.074-1.4
			c-0.11-3.003,0.274-6.702-0.018-9.948c0.448-0.234,0.886-0.491,1.302-0.793c4.297-3.122,5.691-8.827,6.494-14.078
			C451.654,327.355,452.282,316.216,447.015,310.902"/>
		<path style="fill:#1A3151;" d="M448.121,325.863c0.515,0.608,1.391,0.761,2.018,1.253c2.093,1.643,0.064,5.258,1.331,7.598
			c1.623,2.999,1.33,8.261-1.784,10.751c-1.058,0.845-2.483,1.438-2.924,2.718c-0.514,1.491,0.526,3.421-0.538,4.585
			c1.692,1.744,4.593,1.373,6.836,0.439c2.243-0.933,4.436-2.324,6.864-2.236c0.77,0.028,1.694,0.148,2.171-0.458
			c0.286-0.363,0.292-0.864,0.338-1.326c0.562-5.573,7.131-4.146,8.009-8.666c0.236-1.215-1.248-4.215-1.222-5.805
			c0.041-2.534,1.488-4.795,0.627-7.392c-0.355-1.073-1.07-1.998-1.438-3.067c-0.747-2.174,0.035-4.532,0.481-6.787
			c0.447-2.255,0.375-4.987-1.471-6.358c-1.443-1.071-3.533-0.938-4.954-2.039c-3.148-2.439-0.838-8.807-4.382-10.623
			c-1.817-0.932-4.029,0.087-6.05-0.208c-2.135-0.312-3.746-2.012-5.53-3.225c-1.785-1.212-4.461-1.861-5.917-0.269
			c-1.227,1.341-0.896,3.575-2.022,5.001c-0.963,1.22-2.67,1.483-4.079,2.147c-6.606,3.12,5.835,5.157,7.622,7.344
			c1.505,1.842,3.109,5.307,4.202,7.431C447.581,319.142,446.771,324.269,448.121,325.863"/>
		<path style="fill:#1A3151;" d="M428.859,310.177c-8.08,1.719-3.18,7.751-5.761,12.679c-1.017,1.94-3.796,2.669-4.349,4.788
			c-0.445,1.707,0.801,3.333,1.798,4.788c0.997,1.455,1.763,3.56,0.559,4.849c-0.362,0.388-0.871,0.649-1.124,1.115
			c-0.662,1.219,0.839,2.458,2.113,3.009c1.273,0.55,2.833,1.636,2.326,2.926c-1.485,3.775-2.436,2.182-0.027,5.389
			c0.582,0.774,1.588,0.638,2.153,1.428c-1.052,1.134-2.616,1.536-4.135,0.947c-3.761-1.461-2.723,0.372-5.661,0.834
			c-3.094,0.485-3.192-0.463-5.9-2.189c-2.525-1.611-7.818-2.739-8.713-6.007c-0.5-1.828,0.918-3.707,0.5-5.546
			c-0.392-1.725-2.298-3.033-3.178-4.656c-1.783-3.287,0.915-6.882,1.473-10.4c0.774-4.876-2.111-10.943,3.034-14.016
			c1.106-0.661,2.457-1.058,3.585-1.697c3.326-1.885,3.987-5.319,5.289-8.275c1.302-2.956,4.667-6.122,8.752-5.441
			c3.71,0.618,5.678,4.144,9.447,4.514c1.322,0.129,2.768-0.152,3.935,0.327c0.907,0.373,1.406,1.118,1.791,1.833
			c0.896,1.662,3.512,7.246,1.536,8.784C435.734,312.159,432.284,309.449,428.859,310.177"/>
		<path style="fill:#145566;" d="M459.519,329.226c0.39-0.591,0.784-1.242,0.867-1.962c0.13-1.121-0.444-1.978-1.382-2.535
			c-0.553-0.329-1.165-0.507-1.754-0.755c-1.244-0.523-2.249-1.107-1.68-2.918c0.09-0.287,0.34-0.573,0.463-0.852
			c0.457-1.041,0.56-2.303,0.205-3.391c-0.274-0.843-0.855-1.58-1.718-1.861c-0.705-0.23-1.386,0.016-2.096-0.032
			c-2.653-0.182-1.657-2.633-1.481-4.126c0.313-2.659-1.51-4.926-4.152-5.266c-0.411-0.053-0.409,0.595-0.001,0.647
			c1.33,0.171,2.466,0.947,3.113,2.127c0.651,1.185,0.388,2.351,0.173,3.619c-0.182,1.067-0.236,2.373,0.664,3.16
			c1.408,1.229,3.471-0.455,4.632,1.361c1.118,1.749-0.12,3.222-0.628,4.831c-1.289,4.082,7.032,2.787,4.496,7.196
			c-0.654,1.139-1.903,2.254-1.691,3.705c0.153,1.048,0.953,1.867,2.031,1.754c0.41-0.043,0.416-0.69,0.001-0.647
			c-1.766,0.185-1.379-2.006-0.929-2.798C458.905,330.04,459.239,329.65,459.519,329.226"/>
		<path style="fill:#145566;" d="M423.024,308.454c-2.258-0.283-5.768-0.216-6.084,2.752c-0.163,1.535,0.751,2.917,0.994,4.388
			c0.485,2.945-2.479,3.567-4.547,4.452c-2.215,0.948-4.142,3.5-1.789,5.43c0.284,0.197,0.563,0.402,0.836,0.614
			c-0.168,0.657-0.336,1.314-0.504,1.97c-0.2,0.258-0.779,0.461-1.033,0.686c-0.349,0.308-0.675,0.659-0.741,1.141
			c-0.112,0.829,0.406,1.477,1.209,1.513c0.416,0.019,0.416-0.628,0.001-0.647c0.062-0.564,0.124-1.129,0.185-1.693
			c0.175-0.113,0.351-0.223,0.528-0.332c0.168-0.14,0.38-0.234,0.549-0.377c0.262-0.219,0.519-0.472,0.672-0.781
			c0.363-0.733,0.145-1.386-0.407-1.936c-0.544-0.542-1.112-0.728-1.478-1.489c-0.621-1.293,0.263-2.443,1.427-3.128
			c1.215-0.714,2.662-0.924,3.869-1.663c1.932-1.183,2.2-2.955,1.561-5.005c-0.484-1.55-1.374-3.61,0.325-4.746
			c1.256-0.841,2.997-0.681,4.426-0.502C423.435,309.153,423.433,308.505,423.024,308.454"/>
		<path style="fill:#145566;" d="M407.946,320.086c0.398-0.118,0.23-0.742-0.171-0.624c-1.764,0.521-4.044,1.406-3.987,3.62
			c0.016,0.628,0.266,1.19,0.745,1.598c0.728,0.618,1.609,0.575,2.233,1.378c1.206,1.551-0.337,3.437-2.167,2.884
			c-0.4-0.121-0.572,0.503-0.174,0.623c1.785,0.54,3.771-0.699,3.486-2.708c-0.155-1.094-0.807-1.616-1.701-2.119
			c-1.273-0.716-2.389-1.801-1.19-3.208C405.734,320.691,406.937,320.384,407.946,320.086"/>
		<path style="fill:#E2EFF7;" d="M410.843,359.207c0,0-11.608,1.575-17.068,10.676l-11.457,20.539l-17.967-42.46l-9.404,5.008
			l9.404,52.707c0,0,14.246,9.376,15.92,9.845c1.674,0.468,28.179-13.126,32.824-19.069L410.843,359.207z"/>
		<path style="fill:#3ABABA;" d="M374.061,504.931l9.337,178.411c0.172,4.839,4.144,8.672,8.986,8.672h110.201
			c4.841,0,8.813-3.833,8.985-8.672l9.337-178.411H374.061z"/>
		<rect x="366.907" y="485.17" style="fill:#35A09D;" width="161.154" height="19.762"/>
		<polygon style="fill:#3ABABA;" points="520.907,485.169 374.061,485.169 385.451,432.495 509.518,432.495 		"/>
		<path style="fill:#1A3151;" d="M487.521,475.339h-80.074c-4.07,0-7.369-3.299-7.369-7.37v-11.17c0-4.07,3.299-7.37,7.369-7.37
			h80.074c4.07,0,7.37,3.3,7.37,7.37v11.17C494.891,472.04,491.591,475.339,487.521,475.339"/>
		<path style="fill:#FFFFFF;" d="M469.261,600.543c-0.041-0.231-0.133-0.486-0.274-0.758c-0.137-0.262-0.544-1.015-1.082-2.009
			L469.261,600.543z"/>
		<path style="fill:#FFFFFF;" d="M448.847,573.778l5.113,1.521c1.817,0.541,4.789,1.427,6.608,1.968l5.113,1.522
			c1.817,0.54,3.645-0.562,4.063-2.451l1.178-5.313c0.416-1.888,1.098-4.978,1.517-6.867l1.177-5.313
			c0.42-1.887-0.771-2.51-2.642-1.383l-3.208,1.935c-1.176-2.051-2.351-4.09-2.805-4.836c-1.033-1.695-3.019-2.992-6.919-2.969
			c-2.895,0.016-10.586,0.061-15.452,0.09l6.452,11.594c0.145,0.148,0.279,0.335,0.399,0.582c0.308,0.637,1.478,2.828,2.642,4.994
			l-3.138,1.892C447.073,571.871,447.03,573.236,448.847,573.778"/>
		<path style="fill:#FFFFFF;" d="M430.963,555.545c-1.658,2.575-5.859,9.429-5.859,9.429c-0.942,1.537-0.462,3.547,1.068,4.465
			l10.305,6.188c1.53,0.917,3.537,0.401,4.455-1.15c0,0,5.813-9.773,6.351-10.678c0.553-0.94,1.221-1.08,1.759-0.522l-6.452-11.595
			c-1.684,0.01-3.032,0.019-3.722,0.023C436.185,551.721,433.117,552.198,430.963,555.545"/>
		<path style="fill:#FFFFFF;" d="M412.736,598.871c1.161,2.305,4.374,8.237,6.729,12.585l7.304-12.218
			c0.86-1.503,2.456-4.29,3.787-6.599l3.739,2.126c1.898,1.08,3.071,0.427,2.608-1.45l-1.309-5.282
			c-0.463-1.876-1.222-4.948-1.687-6.825l-1.305-5.282c-0.465-1.877-2.32-2.932-4.123-2.345l-5.074,1.654
			c-1.804,0.588-4.753,1.549-6.557,2.136l-5.074,1.652c-1.804,0.587-1.727,1.952,0.171,3.03l2.756,1.569
			c-1.408,2.786-3.066,6.076-3.484,7.02C410.462,592.346,410.929,595.288,412.736,598.871"/>
		<path style="fill:#FFFFFF;" d="M426.769,599.238l-7.303,12.217c1.312,2.42,2.359,4.352,2.636,4.888
			c0.771,1.499,1.875,4.434,8.845,4.394c6.965-0.041,10.132-0.059,10.132-0.059c1.772-0.011,3.216-1.503,3.204-3.317l-0.067-12.237
			c-0.011-1.814-1.468-3.291-3.244-3.28c0,0-11.861,0.07-13.839,0.081c-1.249,0.007-1.408-0.84-0.97-1.627
			C426.223,600.191,426.446,599.803,426.769,599.238"/>
		<path style="fill:#FFFFFF;" d="M469.261,600.543l6.038,12.338c2.113-3.983,5.7-10.901,7.166-13.892
			c1.961-4.001,2.516-7.47,1.612-9.293c-0.905-1.827-5.375-10.695-5.375-10.695c-0.814-1.614-2.714-2.155-4.225-1.204l-10.237,6.443
			c-1.512,0.95-2.04,3.026-1.178,4.61c0,0,3.111,5.722,4.843,8.926c0.538,0.994,0.945,1.747,1.082,2.009
			C469.128,600.057,469.22,600.312,469.261,600.543"/>
		<path style="fill:#FFFFFF;" d="M473.804,615.647c0.238-0.413,0.784-1.424,1.494-2.766l-6.037-12.339
			c0.127,0.717-0.227,1.205-1.095,1.21c-0.595,0.004-3.535,0.021-6.244,0.037l-0.034-3.825c-0.02-2.222-1.153-2.943-2.52-1.602
			l-3.844,3.769c-1.366,1.339-3.603,3.531-4.968,4.87l-3.844,3.77c-1.367,1.34-1.346,3.511,0.039,4.825l3.912,3.7
			c1.389,1.314,3.661,3.463,5.053,4.778l3.909,3.7c1.39,1.314,2.513,0.572,2.492-1.65l-0.034-3.636
			c1.53-0.01,3.22-0.019,4.782-0.029C471.211,620.434,472.853,617.286,473.804,615.647"/>
		<path style="fill:#145566;" d="M192.093,504.931l9.337,178.411c0.172,4.839,4.144,8.672,8.985,8.672h110.202
			c4.841,0,8.813-3.833,8.985-8.672l9.337-178.411H192.093z"/>
		<rect x="184.939" y="485.17" style="fill:#0F3E49;" width="161.154" height="19.762"/>
		<polygon style="fill:#145566;" points="338.939,485.169 192.093,485.169 203.482,432.495 327.55,432.495 		"/>
		<path style="fill:#1A3151;" d="M305.553,475.339h-80.074c-4.07,0-7.37-3.299-7.37-7.37v-11.17c0-4.07,3.3-7.37,7.37-7.37h80.074
			c4.07,0,7.37,3.3,7.37,7.37v11.17C312.923,472.04,309.623,475.339,305.553,475.339"/>
		<path style="fill:#FFFFFF;" d="M287.292,600.543c-0.041-0.231-0.133-0.486-0.274-0.758c-0.137-0.262-0.544-1.015-1.082-2.009
			L287.292,600.543z"/>
		<path style="fill:#FFFFFF;" d="M266.879,573.778l5.113,1.521c1.817,0.541,4.789,1.427,6.608,1.968l5.113,1.522
			c1.817,0.54,3.645-0.562,4.063-2.451l1.178-5.313c0.416-1.888,1.098-4.978,1.517-6.867l1.177-5.313
			c0.42-1.887-0.77-2.51-2.642-1.383l-3.208,1.935c-1.176-2.051-2.351-4.09-2.805-4.836c-1.033-1.695-3.019-2.992-6.919-2.969
			c-2.895,0.016-10.586,0.061-15.452,0.09l6.452,11.594c0.145,0.148,0.28,0.335,0.399,0.582c0.308,0.637,1.478,2.828,2.642,4.994
			l-3.138,1.892C265.105,571.871,265.062,573.236,266.879,573.778"/>
		<path style="fill:#FFFFFF;" d="M248.995,555.545c-1.657,2.575-5.859,9.429-5.859,9.429c-0.942,1.537-0.462,3.547,1.068,4.465
			l10.305,6.188c1.53,0.917,3.537,0.401,4.455-1.15c0,0,5.813-9.773,6.351-10.678c0.553-0.94,1.221-1.08,1.759-0.522l-6.452-11.595
			c-1.684,0.01-3.032,0.019-3.722,0.023C254.217,551.721,251.149,552.198,248.995,555.545"/>
		<path style="fill:#FFFFFF;" d="M230.768,598.871c1.161,2.305,4.374,8.237,6.729,12.585l7.304-12.218
			c0.86-1.503,2.456-4.29,3.787-6.599l3.739,2.126c1.897,1.08,3.071,0.427,2.608-1.45l-1.309-5.282
			c-0.463-1.876-1.222-4.948-1.687-6.825l-1.305-5.282c-0.465-1.877-2.32-2.932-4.123-2.345l-5.074,1.654
			c-1.804,0.588-4.753,1.549-6.557,2.136l-5.074,1.652c-1.804,0.587-1.727,1.952,0.171,3.03l2.756,1.569
			c-1.408,2.786-3.066,6.076-3.484,7.02C228.494,592.346,228.96,595.288,230.768,598.871"/>
		<path style="fill:#FFFFFF;" d="M244.8,599.238l-7.303,12.217c1.312,2.42,2.359,4.352,2.636,4.888
			c0.771,1.499,1.875,4.434,8.845,4.394c6.965-0.041,10.132-0.059,10.132-0.059c1.772-0.011,3.216-1.503,3.204-3.317l-0.067-12.237
			c-0.011-1.814-1.468-3.291-3.244-3.28c0,0-11.861,0.07-13.839,0.081c-1.249,0.007-1.408-0.84-0.97-1.627
			C244.254,600.191,244.477,599.803,244.8,599.238"/>
		<path style="fill:#FFFFFF;" d="M287.292,600.543l6.038,12.338c2.113-3.983,5.7-10.901,7.166-13.892
			c1.961-4.001,2.516-7.47,1.612-9.293c-0.905-1.827-5.375-10.695-5.375-10.695c-0.814-1.614-2.713-2.155-4.225-1.204l-10.237,6.443
			c-1.512,0.95-2.04,3.026-1.178,4.61c0,0,3.111,5.722,4.843,8.926c0.538,0.994,0.945,1.747,1.082,2.009
			C287.159,600.057,287.251,600.312,287.292,600.543"/>
		<path style="fill:#FFFFFF;" d="M291.835,615.647c0.238-0.413,0.784-1.424,1.495-2.766l-6.038-12.339
			c0.127,0.717-0.227,1.205-1.095,1.21c-0.594,0.004-3.535,0.021-6.244,0.037l-0.034-3.825c-0.02-2.222-1.153-2.943-2.52-1.602
			l-3.843,3.769c-1.367,1.339-3.604,3.531-4.969,4.87l-3.844,3.77c-1.367,1.34-1.346,3.511,0.039,4.825l3.912,3.7
			c1.389,1.314,3.662,3.463,5.053,4.778l3.909,3.7c1.39,1.314,2.513,0.572,2.492-1.65l-0.034-3.636
			c1.53-0.01,3.22-0.019,4.782-0.029C289.242,620.434,290.884,617.286,291.835,615.647"/>
		<path style="fill:#FFD559;" d="M548.428,502.654l9.337,178.411c0.172,4.839,4.144,8.672,8.985,8.672h110.202
			c4.841,0,8.813-3.833,8.985-8.672l9.337-178.411H548.428z"/>
		<rect x="541.274" y="482.892" style="fill:#EAC057;" width="161.154" height="19.762"/>
		<polygon style="fill:#FFD559;" points="695.274,482.891 548.428,482.891 559.817,430.217 683.885,430.217 		"/>
		<path style="fill:#1A3151;" d="M661.888,473.062h-80.074c-4.07,0-7.37-3.299-7.37-7.37v-11.17c0-4.07,3.3-7.37,7.37-7.37h80.074
			c4.07,0,7.37,3.3,7.37,7.37v11.17C669.258,469.763,665.958,473.062,661.888,473.062"/>
		<path style="fill:#FFFFFF;" d="M643.627,598.265c-0.041-0.231-0.133-0.486-0.274-0.758c-0.137-0.262-0.544-1.015-1.082-2.009
			L643.627,598.265z"/>
		<path style="fill:#FFFFFF;" d="M623.214,571.5l5.113,1.521c1.817,0.541,4.789,1.426,6.608,1.967l5.113,1.523
			c1.817,0.54,3.645-0.562,4.063-2.451l1.178-5.313c0.416-1.888,1.098-4.978,1.517-6.867l1.177-5.313
			c0.42-1.888-0.771-2.51-2.642-1.383l-3.208,1.935c-1.176-2.051-2.351-4.09-2.805-4.836c-1.033-1.695-3.019-2.992-6.919-2.969
			c-2.895,0.016-10.586,0.061-15.452,0.09l6.452,11.594c0.145,0.148,0.279,0.335,0.399,0.582c0.308,0.636,1.478,2.828,2.642,4.994
			l-3.138,1.892C621.44,569.593,621.397,570.958,623.214,571.5"/>
		<path style="fill:#FFFFFF;" d="M605.33,553.267c-1.657,2.575-5.859,9.429-5.859,9.429c-0.942,1.537-0.462,3.547,1.068,4.465
			l10.305,6.187c1.53,0.918,3.537,0.401,4.456-1.149c0,0,5.812-9.773,6.35-10.678c0.553-0.94,1.221-1.08,1.759-0.523l-6.452-11.594
			c-1.684,0.01-3.032,0.019-3.722,0.023C610.552,549.443,607.485,549.919,605.33,553.267"/>
		<path style="fill:#FFFFFF;" d="M587.103,596.593c1.161,2.305,4.374,8.237,6.729,12.585l7.304-12.218
			c0.86-1.502,2.456-4.29,3.787-6.599l3.739,2.126c1.898,1.08,3.071,0.427,2.608-1.45l-1.309-5.282
			c-0.463-1.876-1.222-4.948-1.687-6.825l-1.305-5.282c-0.465-1.877-2.32-2.932-4.123-2.345l-5.074,1.654
			c-1.804,0.588-4.753,1.549-6.557,2.136l-5.074,1.652c-1.804,0.588-1.727,1.952,0.171,3.03l2.756,1.569
			c-1.408,2.786-3.066,6.076-3.484,7.02C584.829,590.068,585.296,593.01,587.103,596.593"/>
		<path style="fill:#FFFFFF;" d="M601.136,596.961l-7.303,12.217c1.312,2.42,2.359,4.352,2.636,4.888
			c0.771,1.499,1.875,4.434,8.845,4.394c6.965-0.041,10.132-0.059,10.132-0.059c1.772-0.011,3.216-1.503,3.205-3.317l-0.068-12.237
			c-0.011-1.814-1.468-3.291-3.244-3.28c0,0-11.861,0.07-13.839,0.081c-1.249,0.007-1.408-0.84-0.97-1.627
			C600.59,597.914,600.814,597.526,601.136,596.961"/>
		<path style="fill:#FFFFFF;" d="M643.627,598.265l6.038,12.338c2.113-3.983,5.7-10.901,7.166-13.892
			c1.961-4.001,2.516-7.47,1.612-9.293c-0.905-1.827-5.375-10.695-5.375-10.695c-0.814-1.614-2.713-2.155-4.225-1.204l-10.237,6.443
			c-1.512,0.95-2.04,3.026-1.178,4.61c0,0,3.111,5.722,4.843,8.926c0.538,0.994,0.945,1.747,1.082,2.009
			C643.494,597.779,643.586,598.034,643.627,598.265"/>
		<path style="fill:#FFFFFF;" d="M648.17,613.37c0.238-0.413,0.784-1.424,1.495-2.766l-6.038-12.339
			c0.127,0.717-0.227,1.205-1.095,1.21c-0.594,0.004-3.534,0.021-6.244,0.037l-0.034-3.825c-0.02-2.222-1.153-2.943-2.52-1.602
			l-3.843,3.769c-1.367,1.339-3.604,3.531-4.969,4.87l-3.844,3.77c-1.367,1.34-1.346,3.511,0.039,4.825l3.912,3.7
			c1.389,1.314,3.662,3.463,5.053,4.778l3.909,3.7c1.39,1.314,2.513,0.572,2.492-1.65l-0.034-3.636
			c1.53-0.01,3.22-0.019,4.782-0.029C645.577,618.157,647.219,615.009,648.17,613.37"/>
		<path style="fill:#E1CFB5;" d="M854.127,359.265c-1.244-1.648-2.488-3.294-3.732-4.941c0.28-1.798,0.56-3.596,0.839-5.395
			c-0.351-0.251-0.701-0.505-1.053-0.758c-0.328,0.42-0.657,0.839-0.986,1.258c-0.195-1.559-0.39-3.117-0.585-4.677
			c-0.93-0.872-1.858-1.747-2.788-2.62c-1.664,0.33-3.329,0.66-4.993,0.99c-1.146,1.327-2.293,2.652-3.44,3.979
			c0.501,1.606,1.009,3.258,1.506,4.835c1.516,1.638,2.917,2.384,4.46,4.232c1.542,1.847,3.228,4.794,4.797,6.851
			C850.148,361.803,852.135,360.511,854.127,359.265"/>
		<path style="fill:#5BBCB9;" d="M853.836,352.458c6.209,6.679,12.517,13.296,18.241,20.424c3.545,4.414,8.391,16.832,14.609,12.228
			c7.013-5.192,14.026-10.384,21.039-15.577c1.215-0.899,2.452-1.81,3.885-2.3c8.302-2.834,12.329,8.651,14.184,14.924
			c1.067,3.608,0.907,2.35,1.695,6.018c0.439,2.041,0.827,4.212,0.146,6.116c-0.813,2.277-2.958,3.658-5.008,4.824
			c-8.561,4.87-17.732,8.67-27.261,11.319c-5.026,1.397-10.157,2.488-15.349,3.22c-5.552,0.783-5.907-0.26-8.418-5.408
			c-8.851-18.145-19.05-30.153-27.425-48.533C847.393,357.294,850.615,354.877,853.836,352.458"/>
		<path style="fill:#BCC699;" d="M563.95,316.502l-2.213-21.302c-0.298-2.728-2.682-4.745-5.423-4.587l-4.727,0.274
			c-2.741,0.158-4.877,2.436-4.858,5.181l0.257,21.415c0.014,2.068-1.196,3.978-3.111,4.761c-5.151,2.104-8.668,7.318-8.33,13.165
			l4.683,80.967c0.164,2.842,2.602,5.014,5.445,4.849l31.541-1.824c2.843-0.164,5.014-2.602,4.849-5.445l-4.682-80.967
			c-0.338-5.846-4.432-10.62-9.792-12.117C565.597,320.316,564.175,318.558,563.95,316.502"/>
		
			<rect x="545.099" y="290.145" transform="matrix(0.9983 -0.0577 0.0577 0.9983 -15.9457 32.4639)" style="fill:#1A3151;" width="17.881" height="4.277"/>
		<path style="fill:#FFFFFF;" d="M576.213,361.099l-2.661,0.154l-1.391-24.063c-1.114-9.837-6.657-9.887-6.892-9.884l-0.079-2.665
			c0.334-0.012,8.217-0.146,9.625,12.323L576.213,361.099z"/>
		<path style="fill:#E2EFF7;" d="M303.949,664.464c-4.264,0-7.72,3.457-7.72,7.72v27.334c0,4.264,3.456,7.72,7.72,7.72h23.728
			c4.833,0,9.29-1.643,12.882-4.373c3.371,2.728,7.65,4.373,12.298,4.373h37.524c3.284,0,5.947-2.663,5.947-5.947v-30.879
			c0-3.285-2.663-5.948-5.947-5.948h-37.524c-4.648,0-8.927,1.646-12.298,4.374c-3.592-2.73-8.049-4.374-12.882-4.374H303.949z"/>
		<rect x="288.416" y="677.241" style="fill:#E2EFF7;" width="8.381" height="17.221"/>
		<rect x="278.944" y="675.902" style="fill:#1A3151;" width="11.1" height="19.9"/>
		<rect x="354.164" y="668.578" style="fill:#9EA6AD;" width="2.278" height="34.547"/>
		<rect x="366.502" y="668.578" style="fill:#9EA6AD;" width="2.278" height="34.547"/>
		<rect x="378.081" y="668.578" style="fill:#9EA6AD;" width="2.278" height="34.547"/>
		<path style="fill:#9EA6AD;" d="M259.884,231.49c-2.75-3.871-8.118-4.78-11.99-2.03l-24.819,17.632
			c-3.871,2.751-4.78,8.119-2.03,11.99l15.307,21.545c3.117,4.388,7.485,7.375,12.281,8.875c-0.303,4.821,0.963,9.768,3.961,13.989
			l24.205,34.07c2.119,2.983,6.255,3.683,9.238,1.564l28.037-19.918c2.983-2.119,3.683-6.255,1.564-9.238l-24.205-34.071
			c-2.998-4.22-7.253-7.044-11.904-8.345c0.162-5.022-1.221-10.13-4.339-14.518L259.884,231.49z"/>
		
			<rect x="223.557" y="230.32" transform="matrix(0.8152 -0.5792 0.5792 0.8152 -93.0125 178.4506)" style="fill:#9EA6AD;" width="19.181" height="9.335"/>
		
			<rect x="216.833" y="221.44" transform="matrix(0.8152 -0.5791 0.5791 0.8152 -89.7121 174.0508)" style="fill:#145566;" width="22.164" height="12.362"/>
		
			<rect x="254.353" y="290.647" transform="matrix(0.8152 -0.5792 0.5792 0.8152 -118.5098 212.3949)" style="fill:#ECECEC;" width="38.478" height="2.537"/>
		
			<rect x="262.312" y="301.85" transform="matrix(0.8152 -0.5792 0.5792 0.8152 -123.5275 219.0753)" style="fill:#ECECEC;" width="38.478" height="2.537"/>
		
			<rect x="269.781" y="312.363" transform="matrix(0.8152 -0.5792 0.5792 0.8152 -128.2361 225.3429)" style="fill:#ECECEC;" width="38.478" height="2.537"/>
		<polygon style="fill:#EBCEB1;" points="536.579,383.237 539.727,380.15 542.982,384.316 546.45,384.901 550.483,391.904 
			545.766,398.728 536.265,400.693 533.142,388.981 		"/>
		<path style="fill:#65696B;" d="M756.177,300.589l115.811-17.104l18.218-27.583l-114.77,16.95
			C775.435,272.852,756.849,301.552,756.177,300.589"/>
		<polygon style="fill:#E7E3D2;" points="781.95,279.575 853.475,269.011 856.041,286.38 783.405,297.107 		"/>
		<path style="fill:#E0E0E1;" d="M769.537,247.303c0,0,1.237,6.233,6.39,17.787l28.63,68.853l-7.81,3.248l-35.878-86.284
			L769.537,247.303z"/>
		<path style="fill:#E0E0E1;" d="M769.537,247.303c1.253,3.013-3.424,7.822-10.446,10.742c-7.022,2.919-13.73,2.844-14.983-0.168
			c-1.252-3.013,3.424-7.822,10.446-10.742C761.576,244.215,768.284,244.29,769.537,247.303"/>
		<path style="fill:#CACCCD;" d="M750.998,252.626l2.963,7.127c1.401-0.316,2.861-0.765,4.342-1.38
			c4.786-1.99,8.879-4.507,9.039-7.754C765.497,246.882,755.263,250.794,750.998,252.626"/>
		<path style="fill:#ECECEC;" d="M758.85,258.139c-2.45,0.996-4.85,1.625-6.99,1.893c-3.916,0.49-6.95-0.229-7.751-2.155
			l19.218,46.216l16.66,40.067l22.382-9.307l-34.407-82.746l-0.619-1.488C767.189,253.741,763.396,256.186,758.85,258.139"/>
		<path style="fill:#E0E0E1;" d="M901.323,226.614c0,0-3.553,6.303-8.68,19.926l-31.613,79.771l-6.163-2.443l39.616-99.965
			L901.323,226.614z"/>
		<path style="fill:#E0E0E1;" d="M901.323,226.614c-1.383,3.49-6.997,4.539-12.538,2.343c-5.542-2.196-8.912-6.805-7.529-10.296
			c1.383-3.49,6.996-4.539,12.538-2.343C899.336,218.514,902.706,223.124,901.323,226.614"/>
		<path style="fill:#CACCCD;" d="M888.295,218.724l-3.272,8.257c0.926,0.671,1.972,1.267,3.141,1.73
			c3.776,1.497,7.553,2.063,9.814-0.676C899.545,223.509,891.7,220.008,888.295,218.724"/>
		<path style="fill:#ECECEC;" d="M888.599,228.877c-1.918-0.786-3.565-1.86-4.836-3.075c-2.326-2.223-3.391-4.909-2.507-7.14
			l-21.219,53.545l-18.396,46.42l17.662,7l37.992-95.867l0.683-1.725C895.805,230.669,892.229,230.244,888.599,228.877"/>
		<path style="fill:#E0E0E1;" d="M874.825,220.24c0,0-1.895,6.983-3.517,21.448l-11.04,85.093l-6.575-0.853l13.835-106.635
			L874.825,220.24z"/>
		<path style="fill:#E0E0E1;" d="M874.825,220.24c-0.483,3.723-5.667,6.12-11.578,5.353s-10.311-4.407-9.828-8.13
			c0.483-3.723,5.666-6.12,11.577-5.353C870.908,212.877,875.308,216.517,874.825,220.24"/>
		<path style="fill:#CACCCD;" d="M860.257,215.793l-1.143,8.808c1.063,0.423,2.224,0.744,3.47,0.906
			c4.029,0.522,7.829,0.143,9.347-3.068C872.338,217.666,863.873,216.201,860.257,215.793"/>
		<path style="fill:#ECECEC;" d="M863.047,225.56c-2.052-0.291-3.913-0.927-5.444-1.792c-2.8-1.583-4.493-3.925-4.184-6.305
			l-7.411,57.117l-6.424,49.518l18.841,2.444l13.268-102.263l0.239-1.84C870.472,225.526,866.901,225.993,863.047,225.56"/>
		<path style="fill:#C7C9C5;" d="M818.753,237.329c0,0-1.742,6.974-2.044,21.284l-3.929,84.27l-9.559-0.445l4.923-105.604
			L818.753,237.329z"/>
		<path style="fill:#C7C9C5;" d="M818.753,237.329c-0.172,3.687-7.278,6.351-15.872,5.951c-8.595-0.401-15.422-3.715-15.25-7.402
			c0.171-3.687,7.278-6.351,15.872-5.951C812.096,230.328,818.924,233.642,818.753,237.329"/>
		<path style="fill:#B5B5B0;" d="M797.214,233.83l-0.407,8.723c1.585,0.352,3.296,0.598,5.109,0.682
			c5.857,0.273,11.26-0.326,12.99-3.572C814.822,234.949,802.462,234.015,797.214,233.83"/>
		<path style="fill:#D4D4D0;" d="M802.588,243.26c-2.987-0.163-5.748-0.677-8.066-1.436c-4.244-1.388-7.001-3.588-6.891-5.945
			l-2.637,56.564l-2.286,49.039l27.393,1.277l4.721-101.274l0.085-1.822C813.243,242.784,808.182,243.455,802.588,243.26"/>
		
			<rect x="761.569" y="291.594" transform="matrix(0.9893 -0.1461 0.1461 0.9893 -39.8237 123.3916)" style="fill:#898F93;" width="117.067" height="82.42"/>
		<polygon style="fill:#9DA2A5;" points="756.177,300.589 754.289,336.499 868.536,319.625 871.927,282.945 		"/>
		<polygon style="fill:#9EA6AD;" points="890.098,255.171 901.411,331.767 883.922,364.29 871.879,282.754 		"/>
		<polygon style="fill:#B6BCC1;" points="871.987,283.484 886.649,307.291 904.954,278.589 890.206,255.901 		"/>
		<path style="fill:#BCC699;" d="M804.333,293.508c0,0,20.957-3.619,30.261,13.068c0,0,23.586-22.605,29.348-22.56l-17.934-9.436
			l-12.887,5.764L804.333,293.508z"/>
		<path style="fill:#E6BC3B;" d="M350.595,359.479c-0.199,0.24-0.407,0.476-0.607,0.716c0.027,0.069,0.058,0.137,0.085,0.205
			C350.27,360.131,350.453,359.839,350.595,359.479"/>
		<path style="fill:#E6BC3B;" d="M340.379,348.981c-4.801-1.731-10.128,0.036-14.724,2.255c-6.544,3.159-12.632,7.262-18.016,12.142
			c-4.457,4.041-9.009,8.891-15.008,9.356c-2.664,0.206-5.314-0.509-7.985-0.572c-2.672-0.062-5.661,0.755-6.977,3.081
			c-1.507,2.663-0.194,6.018,1.439,8.605c2.478,3.929,5.9,7.524,10.333,8.91c2.907,0.909,6.033,0.802,9.057,0.429
			c13.936-1.724,26.437-8.921,36.912-17.986C342.443,369.116,354.944,354.234,340.379,348.981"/>
		<path style="fill:#F1CC40;" d="M350.315,353.622c-0.066,0.305-0.142,0.61-0.209,0.915c0.055,0.049,0.114,0.095,0.17,0.143
			C350.327,354.351,350.355,354.006,350.315,353.622"/>
		<path style="fill:#F1CC40;" d="M336.412,349.009c-5.058,0.675-8.973,4.697-12.031,8.783c-4.354,5.818-7.868,12.263-10.399,19.075
			c-2.096,5.639-3.903,12.041-9.013,15.216c-2.27,1.41-4.951,1.996-7.352,3.171c-2.4,1.174-4.676,3.277-4.773,5.947
			c-0.112,3.058,2.599,5.431,5.24,6.976c4.009,2.346,8.702,3.961,13.276,3.15c2.998-0.533,5.724-2.067,8.236-3.791
			c11.576-7.948,19.358-20.094,24.481-32.965C347.516,365.931,351.76,346.964,336.412,349.009"/>
		<path style="fill:#F1CC40;" d="M337.365,352.93c-0.09,0.298-0.172,0.602-0.261,0.902c-0.072,0.015-0.146,0.027-0.218,0.043
			C337.001,353.562,337.144,353.247,337.365,352.93"/>
		<path style="fill:#F1CC40;" d="M351.761,355.635c4.097,3.042,5.571,8.458,6.265,13.515c0.987,7.199,0.936,14.54-0.153,21.724
			c-0.901,5.949-2.424,12.424,0.506,17.678c1.302,2.334,3.363,4.146,4.892,6.337c1.53,2.192,2.502,5.134,1.292,7.517
			c-1.385,2.728-4.906,3.49-7.965,3.561c-4.644,0.107-9.532-0.755-13.138-3.682c-2.365-1.92-4.005-4.583-5.366-7.309
			c-6.272-12.564-7.189-26.959-5.43-40.7C333.845,365.052,339.329,346.406,351.761,355.635"/>
		<path style="fill:#F1CC40;" d="M345.453,359.557l-6.688-4.171c-1.181-0.737-1.541-2.291-0.805-3.473l5.298-8.493
			c0.736-1.181,2.291-1.542,3.472-0.805l6.688,4.171c1.181,0.737,1.542,2.291,0.805,3.473l-5.297,8.493
			C348.189,359.934,346.634,360.294,345.453,359.557"/>
	</g>
</g>
</svg>
